<svg width="428" height="185" viewBox="0 0 428 185" fill="none" xmlns="http://www.w3.org/2000/svg">
<path d="M45.696 65.952C45.5253 63.8187 45.312 61.2587 45.056 58.272C44.8853 55.2853 44.8 52.4267 44.8 49.696C44.8 48.7573 44.8 47.8187 44.8 46.88C44.8853 45.856 44.9707 45.0027 45.056 44.32L67.2 43.68C67.2 44.3627 67.2 45.728 67.2 47.776C67.2853 49.824 67.328 52.0853 67.328 54.56C67.4133 57.0347 67.4987 59.296 67.584 61.344C67.6693 63.3067 67.712 64.6293 67.712 65.312L45.696 65.952ZM37.632 158.112C28.0747 158.112 20.224 154.955 14.08 148.64C7.936 142.325 3.79733 133.28 1.664 121.504L23.296 115.104C23.296 117.408 23.552 119.84 24.064 122.4C24.6613 124.96 25.5573 127.392 26.752 129.696C27.9467 132 29.44 133.877 31.232 135.328C33.024 136.693 35.072 137.376 37.376 137.376C40.5333 137.376 42.8373 136.608 44.288 135.072C45.824 133.536 46.7627 130.933 47.104 127.264C47.2747 125.301 47.4027 123.083 47.488 120.608C47.5733 118.048 47.616 115.403 47.616 112.672C47.616 108.32 47.5307 103.968 47.36 99.616C47.1893 95.1787 46.976 91.1253 46.72 87.456C46.464 83.7867 46.1227 80.9707 45.696 79.008L68.096 78.368C68.1813 79.9893 68.2667 82.6347 68.352 86.304C68.4373 89.888 68.5227 94.0693 68.608 98.848C68.6933 103.627 68.736 108.576 68.736 113.696C68.736 116.853 68.6933 120.011 68.608 123.168C68.5227 126.325 68.352 129.269 68.096 132C67.84 134.816 67.1147 137.76 65.92 140.832C64.8107 143.904 63.0613 146.72 60.672 149.28C58.2827 151.925 55.2107 154.059 51.456 155.68C47.7013 157.301 43.0933 158.112 37.632 158.112ZM112.022 158.112C105.622 158.112 99.8193 156.448 94.614 153.12C89.4087 149.877 85.27 145.483 82.198 139.936C79.2113 134.304 77.718 128.032 77.718 121.12C77.718 114.635 78.9127 108.789 81.302 103.584C83.6913 98.2933 86.934 93.7707 91.03 90.016C95.2113 86.2613 99.9473 83.4027 105.238 81.44C110.529 79.392 116.075 78.368 121.878 78.368C126.742 78.368 131.521 79.0507 136.214 80.416C136.555 78.624 136.854 76.832 137.11 75.04L158.998 78.752C158.401 80.3733 157.803 82.8053 157.206 86.048C156.609 89.2907 156.097 92.9173 155.67 96.928C155.329 100.939 155.03 104.949 154.774 108.96C154.518 112.971 154.39 116.597 154.39 119.84C154.39 122.485 154.561 125.088 154.902 127.648C155.329 130.123 156.182 132.171 157.462 133.792C158.742 135.328 160.705 136.096 163.35 136.096H165.142L161.942 158.368C156.31 158.368 151.659 157.387 147.99 155.424C144.321 153.547 141.377 150.987 139.158 147.744C135.489 151.84 131.307 154.571 126.614 155.936C121.921 157.387 117.057 158.112 112.022 158.112ZM98.71 123.68C99.1367 127.776 100.801 131.061 103.702 133.536C106.689 135.925 110.443 137.12 114.966 137.12C119.318 137.12 122.945 135.968 125.846 133.664C128.747 131.275 131.137 128.032 133.014 123.936C132.929 122.571 132.886 121.163 132.886 119.712C132.886 116.725 132.971 113.653 133.142 110.496C133.313 107.339 133.526 104.224 133.782 101.152C130.198 99.7867 126.443 99.104 122.518 99.104C117.91 99.104 113.771 100.043 110.102 101.92C106.518 103.712 103.702 106.229 101.654 109.472C99.606 112.715 98.582 116.469 98.582 120.736C98.582 121.248 98.582 121.76 98.582 122.272C98.582 122.784 98.6247 123.253 98.71 123.68ZM210.776 158.624C204.973 158.624 199.597 157.941 194.648 156.576C189.699 155.211 185.219 153.461 181.208 151.328C177.197 149.195 173.613 146.933 170.456 144.544L181.976 125.984C185.56 129.312 189.016 131.872 192.344 133.664C195.672 135.456 199.128 136.693 202.712 137.376C206.381 138.059 210.349 138.4 214.616 138.4C218.285 138.4 221.229 137.931 223.448 136.992C225.667 135.968 226.776 134.688 226.776 133.152C226.776 131.872 225.709 130.891 223.576 130.208C221.443 129.44 218.712 128.8 215.384 128.288C212.056 127.691 208.557 126.965 204.888 126.112C199.683 124.747 194.819 123.168 190.296 121.376C185.773 119.584 182.104 117.152 179.288 114.08C176.557 111.008 175.192 106.912 175.192 101.792C175.192 97.696 176.173 94.112 178.136 91.04C180.099 87.8827 182.701 85.28 185.944 83.232C189.272 81.0987 193.027 79.52 197.208 78.496C201.389 77.472 205.699 76.96 210.136 76.96C217.816 76.96 224.429 77.8987 229.976 79.776C235.608 81.568 240.984 83.9573 246.104 86.944L234.456 104.608C231.896 102.816 228.952 101.28 225.624 100C222.381 98.6347 219.096 97.6107 215.768 96.928C212.525 96.16 209.496 95.776 206.68 95.776C203.608 95.776 201.176 96.2453 199.384 97.184C197.677 98.1227 196.824 99.4453 196.824 101.152C196.824 102.176 197.891 103.157 200.024 104.096C202.243 104.949 206.424 106.101 212.568 107.552C216.237 108.405 220.12 109.301 224.216 110.24C228.312 111.093 232.152 112.331 235.736 113.952C239.405 115.488 242.349 117.749 244.568 120.736C246.872 123.637 248.024 127.52 248.024 132.384C248.024 140.576 244.739 146.976 238.168 151.584C231.597 156.277 222.467 158.624 210.776 158.624ZM295.91 158.496C289.083 158.496 283.11 157.387 277.99 155.168C272.955 152.949 268.774 149.92 265.446 146.08C262.118 142.155 259.643 137.675 258.022 132.64C256.401 127.605 255.59 122.315 255.59 116.768C255.59 111.136 256.571 105.931 258.534 101.152C260.582 96.288 263.355 92.064 266.854 88.48C270.438 84.896 274.619 82.1227 279.398 80.16C284.177 78.112 289.382 77.088 295.014 77.088C300.902 77.088 306.363 78.112 311.398 80.16C316.433 82.208 320.827 85.0667 324.582 88.736C328.337 92.4053 331.238 96.7147 333.286 101.664C335.419 106.613 336.486 111.989 336.486 117.792C336.486 130.677 332.945 140.704 325.862 147.872C318.779 154.955 308.795 158.496 295.91 158.496ZM295.782 137.76C302.011 137.76 306.747 136.011 309.99 132.512C313.318 129.013 314.982 123.979 314.982 117.408C314.982 111.52 313.19 106.784 309.606 103.2C306.022 99.616 301.329 97.824 295.526 97.824C292.027 97.824 288.827 98.7627 285.926 100.64C283.025 102.432 280.678 104.864 278.886 107.936C277.179 110.923 276.326 114.251 276.326 117.92C276.326 121.163 276.966 124.32 278.246 127.392C279.611 130.464 281.745 132.981 284.646 134.944C287.547 136.821 291.259 137.76 295.782 137.76ZM347.543 157.216C347.287 149.707 347.074 142.752 346.903 136.352C346.818 129.952 346.775 123.637 346.775 117.408C346.775 111.179 346.818 104.949 346.903 98.72C347.074 92.4053 347.33 85.664 347.671 78.496H369.303C368.962 82.336 368.663 86.2187 368.407 90.144C371.308 86.4747 374.764 83.4453 378.775 81.056C382.786 78.5813 387.522 77.344 392.983 77.344C398.359 77.344 402.754 78.24 406.167 80.032C409.666 81.824 412.396 84.2987 414.359 87.456C416.407 90.6133 417.858 94.24 418.711 98.336C419.65 102.347 420.247 106.699 420.503 111.392C420.759 116 420.887 120.651 420.887 125.344C420.887 130.464 420.802 135.371 420.631 140.064C420.46 144.757 420.29 148.683 420.119 151.84C419.948 154.997 419.82 156.875 419.735 157.472H398.231C398.402 153.973 398.572 150.261 398.743 146.336C398.914 142.325 399.084 138.4 399.255 134.56C399.426 130.635 399.511 127.093 399.511 123.936C399.511 105.76 396.567 96.672 390.679 96.672C385.815 96.672 381.378 98.8053 377.367 103.072C373.442 107.253 370.156 112.544 367.511 118.944C367.511 119.797 367.511 120.651 367.511 121.504C367.511 125.6 367.511 129.867 367.511 134.304C367.596 138.656 367.682 142.837 367.767 146.848C367.938 150.773 368.066 154.187 368.151 157.088L347.543 157.216Z" fill="white"/>
<rect x="43.6561" y="44.3873" width="24" height="22" transform="rotate(-1.82321 43.6561 44.3873)" fill="#CB3F3F"/>
</svg>
